HIERARCHY
ROOT Hip
{
	OFFSET	0.0000	0.0000	0.0000
	CHANNELS 6 Xposition Yposition Zposition Xrotation Yrotation Zrotation
	JOINT LowerSpine
	{
		OFFSET	0.0000	10.2468	-5.5450
		CHANNELS 3 Xrotation Yrotation Zrotation
		JOINT MiddleSpine
		{
			OFFSET	0.0000	9.3510	0.4885
			CHANNELS 3 Xrotation Yrotation Zrotation
			JOINT Chest
			{
				OFFSET	0.0000	11.5708	-2.5755
				CHANNELS 3 Xrotation Yrotation Zrotation
				JOINT Neck
				{
					OFFSET	0.0000	26.0744	-0.5423
					CHANNELS 3 Xrotation Yrotation Zrotation
					JOINT Head
					{
						OFFSET	-0.0001	14.7245	4.0051
						CHANNELS 3 Xrotation Yrotation Zrotation
						End Site
						{
							OFFSET	0.0001	20.5738	0.6142
						}
					}
				}
				JOINT LClavicle
				{
					OFFSET	2.6325	25.1631	8.6210
					CHANNELS 3 Xrotation Yrotation Zrotation
					JOINT LShoulder
					{
						OFFSET	15.3790	3.6093	-5.8402
						CHANNELS 3 Xrotation Yrotation Zrotation
						JOINT LForearm
						{
							OFFSET	32.6679	-0.1158	-0.2831
							CHANNELS 3 Xrotation Yrotation Zrotation
							JOINT LHand
							{
								OFFSET	27.2520	0.0790	-0.1633
								CHANNELS 3 Xrotation Yrotation Zrotation
								JOINT LFinger1
								{
									OFFSET	10.5621	0.9237	2.9336
									CHANNELS 3 Xrotation Yrotation Zrotation
									JOINT LFinger11
									{
										OFFSET	3.9508	-0.9634	0.6961
										CHANNELS 3 Xrotation Yrotation Zrotation
										JOINT LFinger12
										{
											OFFSET	2.6971	-0.6578	0.4754
											CHANNELS 3 Xrotation Yrotation Zrotation
											End Site
											{
												OFFSET	1.9192	-0.5729	0.3113
											}
										}
									}
								}
								JOINT LFinger2
								{
									OFFSET	10.7197	1.0667	0.2554
									CHANNELS 3 Xrotation Yrotation Zrotation
									JOINT LFinger21
									{
										OFFSET	4.8849	0.0136	-0.0289
										CHANNELS 3 Xrotation Yrotation Zrotation
										JOINT LFinger22
										{
											OFFSET	2.7077	0.0083	-0.0165
											CHANNELS 3 Xrotation Yrotation Zrotation
											End Site
											{
												OFFSET	2.4320	-0.1717	0.0033
											}
										}
									}
								}
								JOINT LFinger3
								{
									OFFSET	10.1592	0.7119	-2.4035
									CHANNELS 3 Xrotation Yrotation Zrotation
									JOINT LFinger31
									{
										OFFSET	4.4325	-0.2244	-0.2775
										CHANNELS 3 Xrotation Yrotation Zrotation
										JOINT LFinger32
										{
											OFFSET	2.5259	-0.1271	-0.1586
											CHANNELS 3 Xrotation Yrotation Zrotation
											End Site
											{
												OFFSET	2.2333	-0.2746	-0.1056
											}
										}
									}
								}
								JOINT LFinger4
								{
									OFFSET	9.4273	-0.7164	-4.1508
									CHANNELS 3 Xrotation Yrotation Zrotation
									JOINT LFinger41
									{
										OFFSET	2.7264	-0.5686	-0.7526
										CHANNELS 3 Xrotation Yrotation Zrotation
										JOINT LFinger42
										{
											OFFSET	1.9994	-0.4164	-0.5523
											CHANNELS 3 Xrotation Yrotation Zrotation
											End Site
											{
												OFFSET	1.7745	-0.4876	-0.4071
											}
										}
									}
								}
								JOINT LFinger0
								{
									OFFSET	2.1850	-1.6538	1.6564
									CHANNELS 3 Xrotation Yrotation Zrotation
									JOINT LFinger01
									{
										OFFSET	4.0680	-1.3359	3.0670
										CHANNELS 3 Xrotation Yrotation Zrotation
										JOINT LFinger02
										{
											OFFSET	2.6787	-0.9585	1.9299
											CHANNELS 3 Xrotation Yrotation Zrotation
											End Site
											{
												OFFSET	1.9698	-0.6781	1.3488
											}
										}
									}
								}
							}
						}
					}
				}
				JOINT RClavicle
				{
					OFFSET	-2.6324	25.1631	8.6210
					CHANNELS 3 Xrotation Yrotation Zrotation
					JOINT RShoulder
					{
						OFFSET	-15.3817	3.6099	-5.8412
						CHANNELS 3 Xrotation Yrotation Zrotation
						JOINT RForearm
						{
							OFFSET	-32.6679	-0.1158	-0.2831
							CHANNELS 3 Xrotation Yrotation Zrotation
							JOINT RHand
							{
								OFFSET	-27.2520	0.0791	-0.1632
								CHANNELS 3 Xrotation Yrotation Zrotation
								JOINT RFinger1
								{
									OFFSET	-10.5622	0.9238	2.9336
									CHANNELS 3 Xrotation Yrotation Zrotation
									JOINT RFinger11
									{
										OFFSET	-3.9508	-0.9634	0.6961
										CHANNELS 3 Xrotation Yrotation Zrotation
										JOINT RFinger12
										{
											OFFSET	-2.6970	-0.6580	0.4754
											CHANNELS 3 Xrotation Yrotation Zrotation
											End Site
											{
												OFFSET	-1.9192	-0.5729	0.3113
											}
										}
									}
								}
								JOINT RFinger2
								{
									OFFSET	-10.7197	1.0668	0.2554
									CHANNELS 3 Xrotation Yrotation Zrotation
									JOINT RFinger21
									{
										OFFSET	-4.8849	0.0136	-0.0289
										CHANNELS 3 Xrotation Yrotation Zrotation
										JOINT RFinger22
										{
											OFFSET	-2.7077	0.0083	-0.0166
											CHANNELS 3 Xrotation Yrotation Zrotation
											End Site
											{
												OFFSET	-2.4320	-0.1717	0.0033
											}
										}
									}
								}
								JOINT RFinger3
								{
									OFFSET	-10.1592	0.7119	-2.4035
									CHANNELS 3 Xrotation Yrotation Zrotation
									JOINT RFinger31
									{
										OFFSET	-4.4325	-0.2244	-0.2775
										CHANNELS 3 Xrotation Yrotation Zrotation
										JOINT RFinger32
										{
											OFFSET	-2.5259	-0.1271	-0.1587
											CHANNELS 3 Xrotation Yrotation Zrotation
											End Site
											{
												OFFSET	-2.2333	-0.2746	-0.1056
											}
										}
									}
								}
								JOINT RFinger4
								{
									OFFSET	-9.4273	-0.7164	-4.1508
									CHANNELS 3 Xrotation Yrotation Zrotation
									JOINT RFinger41
									{
										OFFSET	-2.7264	-0.5686	-0.7526
										CHANNELS 3 Xrotation Yrotation Zrotation
										JOINT RFinger42
										{
											OFFSET	-1.9993	-0.4162	-0.5523
											CHANNELS 3 Xrotation Yrotation Zrotation
											End Site
											{
												OFFSET	-1.7745	-0.4876	-0.4071
											}
										}
									}
								}
								JOINT RFinger0
								{
									OFFSET	-2.1850	-1.6536	1.6563
									CHANNELS 3 Xrotation Yrotation Zrotation
									JOINT RFinger01
									{
										OFFSET	-4.0679	-1.3361	3.0671
										CHANNELS 3 Xrotation Yrotation Zrotation
										JOINT RFinger02
										{
											OFFSET	-2.6786	-0.9584	1.9299
											CHANNELS 3 Xrotation Yrotation Zrotation
											End Site
											{
												OFFSET	-1.9698	-0.6781	1.3488
											}
										}
									}
								}
							}
						}
					}
				}
			}
		}
	}
	JOINT RThigh
	{
		OFFSET	-10.9616	4.6318	-0.9035
		CHANNELS 3 Xrotation Yrotation Zrotation
		JOINT RShin
		{
			OFFSET	-0.8771	-47.6778	0.0000
			CHANNELS 3 Xrotation Yrotation Zrotation
			JOINT RFoot
			{
				OFFSET	0.0000	-46.8167	0.0000
				CHANNELS 3 Xrotation Yrotation Zrotation
				JOINT RToe
				{
					OFFSET	0.0000	-5.1456	10.7601
					CHANNELS 3 Xrotation Yrotation Zrotation
					End Site
					{
						OFFSET	0.0000	0.0000	7.2185
					}
				}
			}
		}
	}
	JOINT LThigh
	{
		OFFSET	10.9614	4.6322	-0.9035
		CHANNELS 3 Xrotation Yrotation Zrotation
		JOINT LShin
		{
			OFFSET	0.8772	-47.6781	0.0000
			CHANNELS 3 Xrotation Yrotation Zrotation
			JOINT LFoot
			{
				OFFSET	0.0000	-46.8167	0.0000
				CHANNELS 3 Xrotation Yrotation Zrotation
				JOINT LToe
				{
					OFFSET	0.0000	-5.1456	10.7601
					CHANNELS 3 Xrotation Yrotation Zrotation
					End Site
					{
						OFFSET	0.0000	0.0000	7.2185
					}
				}
			}
		}
	}
}
MOTION
Frames:	4
Frame Time: 0.0333333000
	7.8166	98.7369	-90.5328	-6.130426	-1.739969	-0.757255	0.000000	0.000000	0.000000	0.136070	0.227441	0.001083	0.453673	0.758140	0.001443	0.000000	0.000000	0.000000	1.040382	11.466700	1.252559	0.000000	0.000000	-15.276990	15.793270	-24.548890	-58.381600	0.000000	-17.820200	0.000000	0.000000	0.000000	0.000000	0.000000	0.000000	0.000000	0.000000	0.000000	0.000000	0.000000	0.000000	0.000000	0.000000	0.000000	0.000000	0.000000	0.000000	0.000000	0.000000	0.000000	0.000000	0.000000	0.000000	0.000000	0.000000	0.000000	0.000000	0.000000	0.000000	0.000000	0.000000	0.000000	0.000000	0.000000	0.000000	0.000000	0.000000	0.000000	0.000000	0.000000	0.000000	0.000000	0.000000	0.000000	0.000000	0.000000	0.000000	0.000000	0.000000	0.000000	16.187260	-9.798019	-14.573790	63.627400	0.000000	2.800632	0.000000	90.137990	44.032440	-39.820240	0.000000	0.000000	0.000000	0.000000	0.000000	0.000000	0.000000	0.000000	0.000000	0.000000	0.000000	0.000000	0.000000	0.000000	0.000000	0.000000	0.000000	0.000000	0.000000	0.000000	0.000000	0.000000	0.000000	0.000000	0.000000	0.000000	0.000000	0.000000	0.000000	0.000000	0.000000	0.000000	0.000000	0.000000	0.000000	0.000000	0.000000	0.000000	0.000000	0.000000	0.000000	0.000000	0.000000	0.000000	0.000000	-0.746817	-0.423896	-0.736680	14.048300	0.000001	0.000000	-1.022610	0.709511	0.346135	0.000000	0.000000	0.000000	5.039936	0.257715	2.916806	2.781388	0.000000	0.000000	-0.328931	-0.802768	-0.386635	0.000000	0.000000	0.000000
	8.1092	98.7749	-90.7966	-5.752798	-1.321371	-0.726956	0.000000	0.000000	0.000000	0.185044	0.203931	0.050631	0.616297	0.680412	0.166113	0.000000	0.000000	0.000000	0.368880	11.853650	1.349942	0.000000	0.000000	-15.405100	15.975320	-24.850030	-59.041650	0.000000	-19.525860	0.000000	0.000000	0.000000	0.000000	0.000000	0.000000	0.000000	0.000000	0.000000	0.000000	0.000000	0.000000	0.000000	0.000000	0.000000	0.000000	0.000000	0.000000	0.000000	0.000000	0.000000	0.000000	0.000000	0.000000	0.000000	0.000000	0.000000	0.000000	0.000000	0.000000	0.000000	0.000000	0.000000	0.000000	0.000000	0.000000	0.000000	0.000000	0.000000	0.000000	0.000000	0.000000	0.000000	0.000000	0.000000	0.000000	0.000000	0.000000	0.000000	0.000000	0.000000	16.160770	-7.268899	-8.011399	64.275800	0.000000	2.993621	0.000000	85.205490	45.050330	-39.725170	0.000000	0.000000	0.000000	0.000000	0.000000	0.000000	0.000000	0.000000	0.000000	0.000000	0.000000	0.000000	0.000000	0.000000	0.000000	0.000000	0.000000	0.000000	0.000000	0.000000	0.000000	0.000000	0.000000	0.000000	0.000000	0.000000	0.000000	0.000000	0.000000	0.000000	0.000000	0.000000	0.000000	0.000000	0.000000	0.000000	0.000000	0.000000	0.000000	0.000000	0.000000	0.000000	0.000000	0.000000	0.000000	-1.194021	-0.471836	-0.815030	13.924210	0.000001	0.000000	-1.511186	0.513556	0.254352	0.000000	0.000000	0.000000	4.153687	0.263172	2.793814	3.653892	0.000000	0.000000	-0.797791	-1.004579	-0.490632	0.000000	0.000000	0.000000
	8.2002	98.6641	-90.9824	-5.607962	-1.067997	-1.181516	0.000000	0.000000	0.000000	0.306848	0.274482	0.254507	1.019265	0.920043	0.842125	0.000000	0.000000	0.000000	-0.220345	11.299420	0.914748	0.000000	0.000000	-15.406120	17.458770	-26.407600	-58.793690	0.000000	-23.102320	0.000000	0.000000	0.000000	0.000000	0.000000	0.000000	0.000000	0.000000	0.000000	0.000000	0.000000	0.000000	0.000000	0.000000	0.000000	0.000000	0.000000	0.000000	0.000000	0.000000	0.000000	0.000000	0.000000	0.000000	0.000000	0.000000	0.000000	0.000000	0.000000	0.000000	0.000000	0.000000	0.000000	0.000000	0.000000	0.000000	0.000000	0.000000	0.000000	0.000000	0.000000	0.000000	0.000000	0.000000	0.000000	0.000000	0.000000	0.000000	0.000000	0.000000	0.000000	16.007770	-3.538131	2.112160	64.278790	0.000000	3.510530	0.000000	75.304470	44.786860	-38.523530	0.000000	0.000000	0.000000	0.000000	0.000000	0.000000	0.000000	0.000000	0.000000	0.000000	0.000000	0.000000	0.000000	0.000000	0.000000	0.000000	0.000000	0.000000	0.000000	0.000000	0.000000	0.000000	0.000000	0.000000	0.000000	0.000000	0.000000	0.000000	0.000000	0.000000	0.000000	0.000000	0.000000	0.000000	0.000000	0.000000	0.000000	0.000000	0.000000	0.000000	0.000000	0.000000	0.000000	0.000000	0.000000	-1.374234	-0.501510	-0.330676	13.479810	0.000001	0.000000	-1.891302	0.046970	0.026350	0.000000	0.000000	0.000000	3.814593	0.317003	3.306454	3.766065	0.000000	0.000000	-1.751451	-1.813265	-0.897727	0.000000	0.000000	0.000000
	7.9296	98.4393	-91.0207	-5.620716	-0.807912	-2.120320	0.000000	0.000000	0.000000	0.490657	0.491563	0.571451	1.616160	1.657240	1.889126	0.000000	0.000000	0.000000	-1.052743	10.753830	0.498184	0.000000	0.000000	-15.242630	21.001760	-30.759550	-56.544350	0.000000	-27.214000	0.000000	0.000000	0.000000	0.000000	0.000000	0.000000	0.000000	0.000000	0.000000	0.000000	0.000000	0.000000	0.000000	0.000000	0.000000	0.000000	0.000000	0.000000	0.000000	0.000000	0.000000	0.000000	0.000000	0.000000	0.000000	0.000000	0.000000	0.000000	0.000000	0.000000	0.000000	0.000000	0.000000	0.000000	0.000000	0.000000	0.000000	0.000000	0.000000	0.000000	0.000000	0.000000	0.000000	0.000000	0.000000	0.000000	0.000000	0.000000	0.000000	0.000000	0.000000	15.714650	2.771163	14.122940	62.449770	0.000000	7.385419	0.000000	58.075540	42.852620	-35.038910	0.000000	0.000000	0.000000	0.000000	0.000000	0.000000	0.000000	0.000000	0.000000	0.000000	0.000000	0.000000	0.000000	0.000000	0.000000	0.000000	0.000000	0.000000	0.000000	0.000000	0.000000	0.000000	0.000000	0.000000	0.000000	0.000000	0.000000	0.000000	0.000000	0.000000	0.000000	0.000000	0.000000	0.000000	0.000000	0.000000	0.000000	0.000000	0.000000	0.000000	0.000000	0.000000	0.000000	0.000000	0.000000	-1.205281	-0.524665	0.769239	12.568080	0.000001	0.000000	-1.752834	-0.285819	-0.141595	0.000000	0.000000	0.000000	3.899516	0.394901	4.632532	3.134206	0.000000	0.000000	-2.741027	-2.485789	-1.263744	0.000000	0.000000	0.000000
